<svg version="1.1" xmlns="http://www.w3.org/2000/svg" xmlns:xlink="http://www.w3.org/1999/xlink" width="320" height="201.99999" viewBox="0,0,320,201.99999"><g transform="translate(-80,-47.46848)"><g data-paper-data="{&quot;isPaintingLayer&quot;:true}" fill-rule="nonzero" stroke-linejoin="miter" stroke-miterlimit="10" stroke-dasharray="" stroke-dashoffset="0" style="mix-blend-mode: normal"><path d="M83.98789,242.71974c0,0 -3.98789,-1.53768 -3.98789,-14.62671c0,-43.0486 0,-138.04669 0,-161.05601c0,-9.82717 5.21492,-14.66038 5.21492,-14.66038c0,0 3.54137,-4.90816 13.55504,-4.90816c32.15046,0 206.25349,0 274.1225,0c16.81381,0 20.2767,5.19144 20.2767,5.19144c0,0 6.83084,3.33103 6.83084,16.7414c0,43.27159 0,137.43482 0,160.383c0,9.87726 -2.4591,13.94625 -2.4591,13.94625c0,0 -3.16761,5.7379 -12.8994,5.7379c-56.98483,0 -254.72178,0 -287.7121,0c-9.12873,0 -12.94151,-6.74873 -12.94151,-6.74873z" fill="#dce7ed" stroke="none" stroke-width="0" stroke-linecap="butt"/><g data-paper-data="{&quot;index&quot;:null}"><path d="M99.88011,74.78058c-5.72711,0 -10.36985,-4.50166 -10.36985,-10.05473c0,-5.55307 4.64274,-10.05473 10.36985,-10.05473c5.72711,0 10.36985,4.50166 10.36985,10.05473c0,5.55307 -4.64274,10.05473 -10.36985,10.05473z" fill="#fe7879" stroke="none" stroke-width="0" stroke-linecap="butt"/><path d="M153.86239,75.38776c-5.61621,0 -10.16905,-4.55284 -10.16905,-10.16905c0,-5.61621 4.55284,-10.16905 10.16905,-10.16905c5.61621,0 10.16905,4.55284 10.16905,10.16905c0,5.61621 -4.55284,10.16905 -10.16905,10.16905z" fill="#ffff90" stroke="none" stroke-width="0" stroke-linecap="butt"/><path d="M126.2755,74.85436c-5.73224,0 -10.37913,-4.6469 -10.37913,-10.37913c0,-5.73224 4.6469,-10.37913 10.37913,-10.37913c5.73224,0 10.37913,4.6469 10.37913,10.37913c0,5.73224 -4.6469,10.37913 -10.37913,10.37913z" fill="#bbcdf2" stroke="none" stroke-width="0" stroke-linecap="butt"/><path d="M104.96651,69.82838l-5.25196,-5.25196l-5.25195,-5.25195" fill="none" stroke="#9a4848" stroke-width="3" stroke-linecap="round"/><path d="M105.07154,58.79927l-5.35699,5.35699l-5.67211,5.67211" fill="none" stroke="#9a4848" stroke-width="3" stroke-linecap="round"/><path d="M121.39646,69.01862v-9.24344h9.24344v9.24344z" fill="none" stroke="#6d788d" stroke-width="3" stroke-linecap="butt"/><path d="M146.39579,65.02713h14.91555" fill="none" stroke="#9a9a56" stroke-width="3" stroke-linecap="round"/></g><path d="M99.88011,74.78058c-5.72711,0 -10.36985,-4.50166 -10.36985,-10.05473c0,-5.55307 4.64274,-10.05473 10.36985,-10.05473c5.72711,0 10.36985,4.50166 10.36985,10.05473c0,5.55307 -4.64274,10.05473 -10.36985,10.05473z" fill="#fe7879" stroke="none" stroke-width="0" stroke-linecap="butt"/><path d="M153.86239,75.38776c-5.61621,0 -10.16905,-4.55284 -10.16905,-10.16905c0,-5.61621 4.55284,-10.16905 10.16905,-10.16905c5.61621,0 10.16905,4.55284 10.16905,10.16905c0,5.61621 -4.55284,10.16905 -10.16905,10.16905z" fill="#ffff90" stroke="none" stroke-width="0" stroke-linecap="butt"/><path d="M126.2755,74.85436c-5.73224,0 -10.37913,-4.6469 -10.37913,-10.37913c0,-5.73224 4.6469,-10.37913 10.37913,-10.37913c5.73224,0 10.37913,4.6469 10.37913,10.37913c0,5.73224 -4.6469,10.37913 -10.37913,10.37913z" fill="#bbcdf2" stroke="none" stroke-width="0" stroke-linecap="butt"/></g></g></svg>