<svg version="1.1" xmlns="http://www.w3.org/2000/svg" xmlns:xlink="http://www.w3.org/1999/xlink" width="521.02102" height="390.39039" viewBox="0,0,521.02102,390.39039"><g transform="translate(16.00601,24.20417)"><g data-paper-data="{&quot;isPaintingLayer&quot;:true}" fill-rule="nonzero" stroke="none" stroke-linecap="butt" stroke-linejoin="miter" stroke-miterlimit="10" stroke-dasharray="" stroke-dashoffset="0" style="mix-blend-mode: normal"><path d="M-16.00601,366.18623v-390.39039h521.02102v390.39039z" fill="#8694ae" stroke-width="0"/><path d="M41.95783,309.54188c0,-11.65704 9.4499,-21.10693 21.10694,-21.10693c11.65704,0 21.10695,9.44989 21.10695,21.10693c0,11.65704 -9.44991,21.10694 -21.10695,21.10694c-11.65704,0 -21.10694,-9.4499 -21.10694,-21.10694z" fill="#dce7ed" stroke-width="0"/><path d="M395.82832,309.54188c0,-11.65704 9.4499,-21.10693 21.10694,-21.10693c11.65704,0 21.10694,9.44989 21.10694,21.10693c0,11.65704 -9.44991,21.10694 -21.10694,21.10694c-11.65704,0 -21.10694,-9.4499 -21.10694,-21.10694z" fill="#dce7ed" stroke-width="0"/><path d="M62.30749,330.73546v-42.38719h355.38503v42.38719z" fill="#dce7ed" stroke-width="0"/><path d="M26.09973,166.26512c0,0 -2.27586,-1.26241 -2.27586,-9.9106c0,-29.53294 0,-96.53926 0,-112.55172c0,-6.72531 4.17241,-11.0894 4.17241,-11.0894c0,0 2.77861,-2.27586 10.55974,-2.27586c23.49932,0 144.14755,0 193.34483,0c12.92873,0 15.99199,3.7931 15.99199,3.7931c0,0 4.93103,3.3096 4.93103,14.15837c0,29.98357 0,88.58132 0,104.93104c0,8.31009 -3.03448,11.04853 -3.03448,11.04853c0,0 -2.49939,6.06896 -11.81957,6.06896c-45.8196,0 -183.14929,0 -204.34483,0c-5.39357,0 -7.52525,-4.17242 -7.52525,-4.17242z" fill="#dce7ed" stroke-width="0"/><path d="M289.99629,89.02374c0,0 -4.17242,-1.74754 -4.17242,-8.77267c0,-11.64306 0,-28.40556 0,-35.27586c0,-5.88312 3.03449,-10.88251 3.03449,-10.88251c0,0 4.02014,-2.65517 11.35284,-2.65517c18.49543,0 99.78247,0 135.11631,0c10.14069,0 11.56532,2.27586 11.56532,2.27586c0,0 4.93104,2.80641 4.93104,9.74457c0,11.59491 0,28.37304 0,35.27586c0,5.93899 -3.03448,10.28991 -3.03448,10.28991c0,0 -1.75788,3.41379 -9.66877,3.41379c-33.51475,0 -123.00152,0 -141.18528,0c-6.30539,0 -7.93905,-3.41379 -7.93905,-3.41379z" fill="#dce7ed" stroke-width="0"/><path d="M284.47905,272.98926c0,0 -2.65517,-2.50679 -2.65517,-11.25543c0,-19.23168 0,-94.49891 0,-128.48276c0,-10.30463 3.41379,-11.8825 3.41379,-11.8825c0,0 2.27932,-4.93103 11.46916,-4.93103c33.39398,0 112.96024,0 133.31034,0c9.24453,0 14.25498,4.55172 14.25498,4.55172c0,0 4.55172,3.89148 4.55172,12.26181c0,18.60384 0,92.21936 0,127.34483c0,11.47456 -3.03448,13.15198 -3.03448,13.15198c0,0 -4.57621,5.68966 -12.35843,5.68966c-19.62434,0 -105.59426,0 -138.62069,0c-8.07615,0 -10.33123,-6.44828 -10.33123,-6.44828z" fill="#dce7ed" stroke-width="0"/><text transform="translate(61.82386,66.43753) scale(0.5,0.5)" font-size="40" xml:space="preserve" fill="#4c4c4c" fill-rule="nonzero" stroke="none" stroke-width="1" stroke-linecap="butt" stroke-linejoin="miter" stroke-miterlimit="10" stroke-dasharray="" stroke-dashoffset="0" font-family="Sans Serif" font-weight="normal" text-anchor="start" style="mix-blend-mode: normal"><tspan x="0" dy="0">Weather Widget</tspan></text><text transform="translate(309.82387,55.43753) scale(0.5,0.5)" font-size="40" xml:space="preserve" fill="#4c4c4c" fill-rule="nonzero" stroke="none" stroke-width="1" stroke-linecap="butt" stroke-linejoin="miter" stroke-miterlimit="10" stroke-dasharray="" stroke-dashoffset="0" font-family="Sans Serif" font-weight="normal" text-anchor="start" style="mix-blend-mode: normal"><tspan x="0" dy="0">Sound and </tspan><tspan x="0" dy="46.150000000000006px">Brightness</tspan></text><text transform="translate(304.82387,146.43752) scale(0.5,0.5)" font-size="40" xml:space="preserve" fill="#4c4c4c" fill-rule="nonzero" stroke="none" stroke-width="1" stroke-linecap="butt" stroke-linejoin="miter" stroke-miterlimit="10" stroke-dasharray="" stroke-dashoffset="0" font-family="Sans Serif" font-weight="normal" text-anchor="start" style="mix-blend-mode: normal"><tspan x="0" dy="0">Notifications</tspan></text><path d="M65.72041,265.02373c0,0 -1.89655,-6.92457 -1.89655,-14.72328c0,-9.51093 0,-33.2282 0,-47.7931c0,-7.13226 4.55172,-10.55258 4.55172,-10.55258c0,0 3.31493,-1.51724 11.08985,-1.51724c17.60024,0 88.16649,0 119.37931,0c9.19846,0 10.8067,2.65517 10.8067,2.65517c0,0 4.17241,2.82033 4.17241,10.55258c0,14.40291 0,36.63602 0,45.89655c0,8.04712 -2.65517,14.34397 -2.65517,14.34397c0,0 -3.2825,4.55172 -12.70325,4.55172c-31.61698,0 -102.4653,0 -119.75862,0c-7.44956,0 -12.9864,-3.41379 -12.9864,-3.41379z" fill="#dce7ed" stroke-width="0"/><text transform="translate(82.82386,231.43753) scale(0.5,0.5)" font-size="40" xml:space="preserve" fill="#4c4c4c" fill-rule="nonzero" stroke="none" stroke-width="1" stroke-linecap="butt" stroke-linejoin="miter" stroke-miterlimit="10" stroke-dasharray="" stroke-dashoffset="0" font-family="Sans Serif" font-weight="normal" text-anchor="start" style="mix-blend-mode: normal"><tspan x="0" dy="0">Add widgets</tspan></text></g></g></svg>