<svg version="1.1" xmlns="http://www.w3.org/2000/svg" xmlns:xlink="http://www.w3.org/1999/xlink" width="521.02102" height="390.39039" viewBox="0,0,521.02102,390.39039"><g transform="translate(16.006,24.20418)"><g data-paper-data="{&quot;isPaintingLayer&quot;:true}" fill-rule="nonzero" stroke-linejoin="miter" stroke-miterlimit="10" stroke-dasharray="" stroke-dashoffset="0" style="mix-blend-mode: normal"><path d="M-16.006,366.18622v-390.39039h521.02102v390.39039z" fill="#8694ae" stroke="none" stroke-width="0" stroke-linecap="butt"/><path d="M41.95784,309.54188c0,-11.65704 9.4499,-21.10693 21.10694,-21.10693c11.65704,0 21.10695,9.44989 21.10695,21.10693c0,11.65704 -9.44991,21.10694 -21.10695,21.10694c-11.65704,0 -21.10694,-9.4499 -21.10694,-21.10694z" fill="#dce7ed" stroke="none" stroke-width="0" stroke-linecap="butt"/><path d="M395.82832,309.54188c0,-11.65704 9.4499,-21.10693 21.10694,-21.10693c11.65704,0 21.10694,9.44989 21.10694,21.10693c0,11.65704 -9.44991,21.10694 -21.10694,21.10694c-11.65704,0 -21.10694,-9.4499 -21.10694,-21.10694z" fill="#dce7ed" stroke="none" stroke-width="0" stroke-linecap="butt"/><path d="M62.3075,330.73546v-42.38719h355.38503v42.38719z" fill="#dce7ed" stroke="none" stroke-width="0" stroke-linecap="butt"/><path d="M297.80782,44.86488h-115.61562" fill="none" stroke="#dce7ed" stroke-width="32.5" stroke-linecap="round"/><text transform="translate(207.79005,52.13513) scale(0.5,0.5)" font-size="40" xml:space="preserve" fill="#4c4c4c" fill-rule="nonzero" stroke="none" stroke-width="1" stroke-linecap="butt" stroke-linejoin="miter" stroke-miterlimit="10" stroke-dasharray="" stroke-dashoffset="0" font-family="Sans Serif" font-weight="normal" text-anchor="start" style="mix-blend-mode: normal"><tspan x="0" dy="0">Search</tspan></text><text transform="translate(102.29015,174.23126) scale(0.5,0.5)" font-size="40" xml:space="preserve" fill="#f9f9f9" fill-rule="nonzero" stroke="none" stroke-width="1" stroke-linecap="butt" stroke-linejoin="miter" stroke-miterlimit="10" stroke-dasharray="" stroke-dashoffset="0" font-family="Sans Serif" font-weight="normal" text-anchor="start" style="mix-blend-mode: normal"><tspan x="0" dy="0">No apps have been installed.</tspan><tspan x="0" dy="46.15px">            This is a demo.</tspan></text></g></g></svg>