<svg version="1.1" xmlns="http://www.w3.org/2000/svg" xmlns:xlink="http://www.w3.org/1999/xlink" width="396.08434" height="42.38719" viewBox="0,0,396.08434,42.38719"><g transform="translate(-41.95783,-288.34827)"><g data-paper-data="{&quot;isPaintingLayer&quot;:true}" fill="#dce7ed" fill-rule="nonzero" stroke="none" stroke-width="0" stroke-linecap="butt" stroke-linejoin="miter" stroke-miterlimit="10" stroke-dasharray="" stroke-dashoffset="0" style="mix-blend-mode: normal"><path d="M41.95783,309.54186c0,-11.65704 9.4499,-21.10693 21.10694,-21.10693c11.65704,0 21.10695,9.44989 21.10695,21.10693c0,11.65704 -9.44991,21.10694 -21.10695,21.10694c-11.65704,0 -21.10694,-9.4499 -21.10694,-21.10694z"/><path d="M395.82829,309.54186c0,-11.65704 9.4499,-21.10693 21.10694,-21.10693c11.65704,0 21.10694,9.44989 21.10694,21.10693c0,11.65704 -9.44991,21.10694 -21.10694,21.10694c-11.65704,0 -21.10694,-9.4499 -21.10694,-21.10694z"/><path d="M62.30749,330.73546v-42.38719h355.38503v42.38719z"/></g></g></svg>