<svg version="1.1" xmlns="http://www.w3.org/2000/svg" xmlns:xlink="http://www.w3.org/1999/xlink" width="72.75986" height="72.75986" viewBox="0,0,72.75986,72.75986"><g transform="translate(-203.62008,-143.62008)"><g data-paper-data="{&quot;isPaintingLayer&quot;:true}" fill-rule="nonzero" stroke-linecap="butt" stroke-linejoin="miter" stroke-miterlimit="10" stroke-dasharray="" stroke-dashoffset="0" style="mix-blend-mode: normal"><path d="M203.62009,180.00001c0,-20.09208 16.28785,-36.37993 36.37993,-36.37993c20.09208,0 36.37993,16.28785 36.37993,36.37993c0,20.09208 -16.28785,36.37993 -36.37993,36.37993c-20.09208,0 -36.37993,-16.28785 -36.37993,-36.37993z" fill="#dce7ed" stroke="#000000" stroke-width="0"/><path d="M212.75988,180.00001c0,-15.04432 12.19583,-27.24014 27.24014,-27.24014c15.04432,0 27.24014,12.19583 27.24014,27.24014c0,15.04432 -12.19583,27.24014 -27.24014,27.24014c-15.04432,0 -27.24014,-12.19583 -27.24014,-27.24014z" fill="#ffffff" stroke="none" stroke-width="0"/><path d="M224.76704,180c0,-8.41294 6.82004,-15.23297 15.23297,-15.23297c8.41294,0 15.23297,6.82004 15.23297,15.23297c0,8.41294 -6.82004,15.23297 -15.23297,15.23297c-8.41294,0 -15.23297,-6.82004 -15.23297,-15.23297z" fill="#4c4c4c" stroke="#4c4c4c" stroke-width="2.5"/><path d="M229.15599,180c0,-5.98899 4.85503,-10.84402 10.84402,-10.84402c5.98899,0 10.84402,4.85503 10.84402,10.84402c0,5.98899 -4.85503,10.84402 -10.84402,10.84402c-5.98899,0 -10.84402,-4.85503 -10.84402,-10.84402z" fill="none" stroke="#f7f7f7" stroke-width="3"/></g></g></svg>